#!OML:ASF H:\LiuWeirdWalks\Patient Classification 1\Patient 1\Session 1\male.ASF
:FULLY-SPECIFIED
:DEGREES
307
root 0.012416 17.7439 23.1943 -1.50408 7.48949 -2.4864
lowerback 6.84027 2.13119 1.73433
upperback -2.73872 3.27813 3.93228
thorax -6.85265 1.63654 2.73454
lowerneck -16.1201 -4.11694 -4.5382
upperneck 25.0865 -3.76062 -2.76677
head 10.8027 -2.47685 -0.755832
rclavicle -2.45499e-014 -1.59028e-014
rhumerus -61.1075 -23.7105 -49.0053
rradius 14.8908
rwrist 11.5239
rhand -12.793 -7.16212
rfingers 7.12502
rthumb 13.2928 -36.7182
lclavicle -2.45499e-014 -1.59028e-014
lhumerus -31.305 -7.96824 91.0557
lradius 65.7739
lwrist 25.0041
lhand -24.425 -7.62127
lfingers 7.12502
lthumb 2.06694 22.3485
rfemur -21.4257 -1.88742 23.0487
rtibia 35.2841
rfoot -7.21833 -15.1844
rtoes -2.83176
lfemur -1.07568 -1.72486 -13.8036
ltibia 59.2126
lfoot 22.1185 -4.33994
ltoes -12.1765
308
root -0.00570356 17.7736 23.4942 -1.6378 7.40699 -3.36029
lowerback 6.75485 2.13146 2.29329
upperback -2.95681 3.35798 4.19374
thorax -7.02551 1.65805 2.6881
lowerneck -15.3786 -4.11046 -4.497
upperneck 25.156 -3.84097 -2.64694
head 10.6852 -2.49371 -0.713903
rclavicle 2.31584e-014 3.57812e-014
rhumerus -59.9341 -22.8771 -50.6559
rradius 15.2842
rwrist 10.3306
rhand -12.8042 -7.02353
rfingers 7.12502
rthumb 13.282 -36.5803
lclavicle 2.31584e-014 3.57812e-014
lhumerus -32.2764 -7.77697 91.1521
lradius 64.6074
lwrist 25.3278
lhand -24.722 -7.17024
lfingers 7.12502
lthumb 1.78003 22.8021
rfemur -20.0104 -1.38536 24.2442
rtibia 34.7659
rfoot -7.6223 -15.9601
rtoes -2.40781
lfemur -3.16316 -1.24045 -12.614
ltibia 61.4101
lfoot 18.5509 -4.61319
ltoes -12.5292
309
root -0.0243764 17.8028 23.7922 -1.68548 7.33217 -4.10462
lowerback 6.64217 2.29379 2.82735
upperback -3.28797 3.6581 4.43418
thorax -7.31098 1.78655 2.60635
lowerneck -14.3339 -4.2965 -4.95537
upperneck 25.1907 -4.12964 -2.34273
head 10.5187 -2.63015 -0.543988
rclavicle 1.04362e-014 -3.49861e-014
rhumerus -59.1416 -22.175 -51.7772
rradius 15.7174
rwrist 9.22325
rhand -12.9215 -6.91997
rfingers 7.12502
rthumb 13.1689 -36.4841
lclavicle 1.04362e-014 -3.49861e-014
lhumerus -33.3833 -8.01294 91.6479
lradius 63.2141
lwrist 25.5124
lhand -24.938 -6.7684
lfingers 7.12502
lthumb 1.57144 23.2056
rfemur -18.6638 -0.823683 25.3107
rtibia 34.2178
rfoot -8.01847 -16.7955
rtoes -2.10359
lfemur -5.29764 -0.721114 -11.598
ltibia 63.2511
lfoot 14.9937 -4.56803
ltoes -13.5456
310
root -0.0422394 17.8301 24.0873 -1.66962 7.27236 -4.65141
lowerback 6.44808 2.3646 3.09293
upperback -3.49357 3.79163 4.58991
thorax -7.4189 1.84382 2.61138
lowerneck -13.7578 -4.37043 -5.05442
upperneck 25.2944 -4.29202 -2.16823
head 10.4539 -2.69338 -0.474711
rclavicle -1.87852e-014 5.56597e-015
rhumerus -57.9979 -21.7648 -52.8897
rradius 15.9963
rwrist 8.70735
rhand -13.2126 -6.75144
rfingers 7.12502
rthumb 12.8882 -36.3335
lclavicle -1.87852e-014 5.56597e-015
lhumerus -34.2298 -8.13519 91.8687
lradius 61.6601
lwrist 25.5741
lhand -25.0667 -6.37199
lfingers 7.12502
lthumb 1.44719 23.6028
rfemur -17.3782 -0.280944 26.1661
rtibia 33.6818
rfoot -8.4428 -17.5963
rtoes -1.95813
lfemur -7.4372 -0.187436 -10.8558
ltibia 64.7294
lfoot 11.7438 -4.20316
ltoes -14.4866
311
root -0.0589537 17.8542 24.3793 -1.62144 7.21641 -5.03157
lowerback 6.24218 2.19837 2.82137
upperback -3.53475 3.55167 4.83662
thorax -7.37121 1.74873 3.06248
lowerneck -13.8802 -4.16776 -4.58392
upperneck 25.5329 -4.05907 -2.37275
head 10.5422 -2.56958 -0.601422
rclavicle 2.96189e-014 3.97569e-014
rhumerus -56.0987 -21.2614 -54.236
rradius 16.0794
rwrist 8.75303
rhand -13.6295 -6.53913
rfingers 7.12502
rthumb 12.4864 -36.1461
lclavicle 2.96189e-014 3.97569e-014
lhumerus -34.8233 -7.59242 91.7165
lradius 60.0147
lwrist 25.4206
lhand -25.101 -5.99773
lfingers 7.12502
lthumb 1.414 23.9773
rfemur -16.1209 0.219718 26.8451
rtibia 33.1731
rfoot -8.94525 -18.3381
rtoes -1.89033
lfemur -9.54768 0.349761 -10.364
ltibia 65.8646
lfoot 8.7123 -3.534
ltoes -15.6268
312
root -0.0745223 17.8739 24.6701 -1.58152 7.14396 -5.31918
lowerback 5.98869 1.54445 1.73599
upperback -3.20362 2.57404 5.31497
thorax -6.90612 1.33486 4.31052
lowerneck -15.276 -3.37697 -2.9392
upperneck 25.922 -3.02892 -3.3435
head 10.891 -2.06785 -1.12364
rclavicle 3.94588e-014 2.46493e-014
rhumerus -52.6518 -20.3176 -56.4157
rradius 15.8428
rwrist 9.39872
rhand -14.1989 -6.26569
rfingers 7.12502
rthumb 11.9373 -35.9053
lclavicle 3.94588e-014 2.46493e-014
lhumerus -34.8743 -5.65301 90.7728
lradius 58.3333
lwrist 25.0725
lhand -25.032 -5.59143
lfingers 7.12502
lthumb 1.48066 24.3832
rfemur -14.8631 0.699076 27.4262
rtibia 32.688
rfoot -9.49916 -19.025
rtoes -1.96229
lfemur -11.5818 0.906505 -10.0333
ltibia 66.6782
lfoot 6.22562 -2.71458
ltoes -15.3209
313
root -0.0890685 17.8881 24.9592 -1.56368 7.05024 -5.60665
lowerback 5.73398 0.593414 0.341341
upperback -2.7351 1.17294 5.87248
thorax -6.21328 0.708731 5.86429
lowerneck -16.8631 -2.15758 -0.625172
upperneck 26.2033 -1.51346 -4.71222
head 11.2705 -1.33689 -1.83709
rclavicle -9.93923e-015 -2.22639e-014
rhumerus -48.5715 -18.9163 -59.0886
rradius 15.4752
rwrist 10.2879
rhand -14.8452 -5.98317
rfingers 7.12502
rthumb 11.3141 -35.658
lclavicle -9.93923e-015 -2.22639e-014
lhumerus -34.9126 -2.94579 89.3602
lradius 56.6857
lwrist 24.6005
lhand -24.8098 -5.06543
lfingers 7.12502
lthumb 1.69528 24.9076
rfemur -13.591 1.14741 28.0118
rtibia 32.2052
rfoot -10.0829 -19.6423
rtoes -2.11952
lfemur -13.5466 1.48431 -9.75582
ltibia 67.2051
lfoot 3.86841 -1.78091
ltoes -15.0032
314
root -0.100692 17.898 25.2492 -1.55665 6.9722 -5.86512
lowerback 5.49322 -0.565968 -1.26701
upperback -2.16192 -0.521013 6.4871
thorax -5.28451 -0.087853 7.62071
lowerneck -18.4453 -0.609469 2.00505
upperneck 26.364 0.366652 -6.31644
head 11.6952 -0.449791 -2.63521
rclavicle 1.04362e-015 -7.31528e-014
rhumerus -44.0916 -16.8933 -62.1573
rradius 15.1
rwrist 11.0004
rhand -15.5047 -5.77919
rfingers 7.12502
rthumb 10.6779 -35.4879
lclavicle 1.04362e-015 -7.31528e-014
lhumerus -35.0075 0.339025 87.7237
lradius 55.0761
lwrist 24.0096
lhand -24.4023 -4.48519
lfingers 7.12502
lthumb 2.08879 25.4843
rfemur -12.2965 1.47668 28.5536
rtibia 31.7064
rfoot -10.6723 -20.1504
rtoes -2.35932
lfemur -15.4313 2.0291 -9.58245
ltibia 67.448
lfoot 1.62094 -0.731674
ltoes -14.7213
315
root -0.109968 17.9023 25.5386 -1.56514 6.9097 -6.19815
lowerback 5.33587 -1.63098 -2.55719
upperback -1.64057 -2.05809 7.02978
thorax -4.36844 -0.850846 9.0823
lowerneck -19.664 0.864435 4.33043
upperneck 26.3841 2.12096 -7.75383
head 12.0828 0.366047 -3.3259
rclavicle -3.18552e-014 1.59028e-014
rhumerus -40.0166 -14.6501 -65.1008
rradius 14.9097
rwrist 11.2196
rhand -16.1092 -5.67812
rfingers 7.12502
rthumb 10.0948 -35.416
lclavicle -3.18552e-014 1.59028e-014
lhumerus -35.2576 3.27486 86.291
lradius 53.4247
lwrist 23.4057
lhand -23.805 -4.05311
lfingers 7.12502
lthumb 2.66569 25.91
rfemur -10.9971 1.70458 29.1662
rtibia 31.1857
rfoot -11.2344 -20.5795
rtoes -2.63711
lfemur -17.2565 2.55089 -9.38319
ltibia 67.4331
lfoot -0.449045 0.345108
ltoes -14.3104
316
root -0.115676 17.9023 25.8289 -1.56707 6.88425 -6.50493
lowerback 5.20091 -2.44012 -3.35855
upperback -1.31747 -3.21229 7.36748
thorax -3.68959 -1.44572 9.98933
lowerneck -20.2486 1.97328 6.07502
upperneck 26.3496 3.40688 -8.78598
head 12.3413 0.971367 -3.8241
rclavicle 5.2181e-016 1.90833e-014
rhumerus -36.9137 -12.5219 -67.6351
rradius 15.034
rwrist 10.8057
rhand -16.6235 -5.66301
rfingers 7.12502
rthumb 9.59863 -35.4243
lclavicle 5.2181e-016 1.90833e-014
lhumerus -35.8073 5.27305 85.2198
lradius 51.7163
lwrist 22.802
lhand -23.0146 -3.73179
lfingers 7.12502
lthumb 3.42904 26.2204
rfemur -9.70229 1.78342 29.7251
rtibia 30.6555
rfoot -11.7789 -20.907
rtoes -2.92552
lfemur -19.0123 3.00657 -9.2895
ltibia 67.1461
lfoot -2.32361 1.45644
ltoes -13.9834
317
root -0.119386 17.8987 26.1185 -1.54654 6.8576 -6.79709
lowerback 5.10126 -2.6764 -3.44823
upperback -1.27582 -3.53561 7.51604
thorax -3.51194 -1.61524 10.2186
lowerneck -20.4427 2.27302 6.53133
upperneck 26.4338 3.76425 -9.07328
head 12.465 1.1348 -3.96136
rclavicle 1.01132e-014 -3.49861e-014
rhumerus -35.1443 -11.2191 -69.1793
rradius 15.5893
rwrist 9.69855
rhand -16.9815 -5.75902
rfingers 7.12502
rthumb 9.2532 -35.536
lclavicle 1.01132e-014 -3.49861e-014
lhumerus -36.4744 5.58973 85.0581
lradius 49.8265
lwrist 22.168
lhand -22.0714 -3.62301
lfingers 7.12502
lthumb 4.33987 26.3125
rfemur -8.44191 1.80713 30.2571
rtibia 30.1265
rfoot -12.2919 -21.1883
rtoes -3.18401
lfemur -20.7247 3.42959 -9.26808
ltibia 66.5883
lfoot -3.92602 2.5417
ltoes -13.5541
318
root -0.120785 17.8931 26.4078 -1.47095 6.82191 -6.97389
lowerback 4.99027 -2.61351 -3.16682
upperback -1.34897 -3.43044 7.44957
thorax -3.5668 -1.56406 9.96702
lowerneck -20.6584 2.17541 6.43616
upperneck 26.6697 3.61285 -8.91552
head 12.5825 1.0729 -3.91888
rclavicle 4.00054e-015 7.07673e-014
rhumerus -34.0068 -10.5355 -70.3183
rradius 16.4052
rwrist 8.29384
rhand -17.2118 -5.89734
rfingers 7.12502
rthumb 9.03097 -35.684
lclavicle 4.00054e-015 7.07673e-014
lhumerus -37.0775 4.91639 85.2437
lradius 47.8084
lwrist 21.5279
lhand -21.0111 -3.54662
lfingers 7.12502
lthumb 5.36363 26.3655
rfemur -7.23815 1.78444 30.6456
rtibia 29.6034
rfoot -12.7716 -21.4125
rtoes -3.4273
lfemur -22.39 3.81625 -9.43412
ltibia 65.7293
lfoot -5.19653 3.5918
ltoes -12.9436
319
root -0.121435 17.8881 26.6969 -1.32097 6.75353 -6.98038
lowerback 4.85529 -2.49087 -2.97068
upperback -1.4526 -3.25258 7.30004
thorax -3.6523 -1.4734 9.66993
lowerneck -20.8843 2.02265 6.25612
upperneck 26.9126 3.38307 -8.66688
head 12.6949 0.979815 -3.83948
rclavicle 1.09332e-015 4.29375e-014
rhumerus -33.0032 -9.93954 -71.3584
rradius 17.3503
rwrist 6.75644
rhand -17.316 -6.04852
rfingers 7.12502
rthumb 8.93044 -35.8395
lclavicle 1.09332e-015 4.29375e-014
lhumerus -37.644 4.07226 85.4887
lradius 45.7348
lwrist 20.8124
lhand -19.8677 -3.44116
lfingers 7.12502
lthumb 6.46758 26.4401
rfemur -6.08182 1.7649 30.8427
rtibia 29.0724
rfoot -13.2242 -21.5954
rtoes -3.67124
lfemur -23.9956 4.17253 -9.83402
ltibia 64.5404
lfoot -6.11494 4.62019
ltoes -12.1384
320
root -0.122066 17.8864 26.9871 -1.09925 6.63458 -6.80553
lowerback 4.69082 -2.53284 -3.3025
upperback -1.51213 -3.33171 7.26459
thorax -3.59088 -1.50733 9.82318
lowerneck -21.0838 2.11376 6.34703
upperneck 27.0414 3.48591 -8.68496
head 12.8004 1.02784 -3.85163
rclavicle 1.57785e-014 -7.15625e-015
rhumerus -31.7298 -8.63838 -72.5667
rradius 18.3721
rwrist 5.01886
rhand -17.3161 -6.23491
rfingers 7.12502
rthumb 8.9303 -36.0259
lclavicle 1.57785e-014 -7.15625e-015
lhumerus -38.1969 3.87212 85.6151
lradius 43.6417
lwrist 19.987
lhand -18.6609 -3.28737
lfingers 7.12502
lthumb 7.63248 26.5549
rfemur -4.95968 1.78828 30.8382
rtibia 28.5025
rfoot -13.6114 -21.757
rtoes -3.9502
lfemur -25.5035 4.51363 -10.4647
ltibia 62.9955
lfoot -6.71169 5.63175
ltoes -11.0885
321
root -0.121195 17.8882 27.2766 -0.806007 6.49191 -6.47513
lowerback 4.53546 -2.69178 -4.01891
upperback -1.58174 -3.59042 7.30799
thorax -3.48195 -1.62488 10.3032
lowerneck -21.1943 2.37304 6.62884
upperneck 27.0608 3.82707 -8.91423
head 12.8767 1.1749 -3.93486
rclavicle 1.00138e-014 -6.36111e-015
rhumerus -30.3797 -6.78322 -73.8188
rradius 19.4903
rwrist 3.11034
rhand -17.2237 -6.41141
rfingers 7.12502
rthumb 9.01947 -36.1986
lclavicle 1.00138e-014 -6.36111e-015
lhumerus -38.7746 4.12621 85.6813
lradius 41.5273
lwrist 19.0303
lhand -17.3842 -2.99387
lfingers 7.12502
lthumb 8.86464 26.7999
rfemur -3.8692 1.76437 30.6396
rtibia 27.8674
rfoot -13.9218 -21.8476
rtoes -4.35321
lfemur -26.9064 4.80309 -11.2969
ltibia 61.0872
lfoot -7.01835 6.65767
ltoes -9.75201
